PathFileType	4	(X/Y/Z)	C:/Users/opensim2020/Desktop/walking_exp_matlab/subject01_walking08_straight_03.trc																																																																																																																															
DataRate	CameraRate	NumFrames	NumMarkers	Units	OrigDataRate	OrigDataStartFrame	OrigNumFrames																																																																																																																											
100	100	7	43	mm	100	2954	326																																																																																																																											
Frame#	Time	LFHD			RFHD			LBHD			RBHD			C7			T10			CLAV			STRN			RBAK			LSHO			LUPA			LELB			LFRM			LWRA			LWRB			LFIN			RSHO			RUPA			RELB			RFRM			RWRA			RWRB			RFIN			LASI			RASI			LPSI			RPSI			LTHI			LKNE			LTIB			LANK			LHEE			LTOE			RTHI			RKNE			RTIB			RANK			RHEE			RTOE			*39			*40			*41			*42		
		X1	Y1	Z1	X2	Y2	Z2	X3	Y3	Z3	X4	Y4	Z4	X5	Y5	Z5	X6	Y6	Z6	X7	Y7	Z7	X8	Y8	Z8	X9	Y9	Z9	X10	Y10	Z10	X11	Y11	Z11	X12	Y12	Z12	X13	Y13	Z13	X14	Y14	Z14	X15	Y15	Z15	X16	Y16	Z16	X17	Y17	Z17	X18	Y18	Z18	X19	Y19	Z19	X20	Y20	Z20	X21	Y21	Z21	X22	Y22	Z22	X23	Y23	Z23	X24	Y24	Z24	X25	Y25	Z25	X26	Y26	Z26	X27	Y27	Z27	X28	Y28	Z28	X29	Y29	Z29	X30	Y30	Z30	X31	Y31	Z31	X32	Y32	Z32	X33	Y33	Z33	X34	Y34	Z34	X35	Y35	Z35	X36	Y36	Z36	X37	Y37	Z37	X38	Y38	Z38	X39	Y39	Z39	X40	Y40	Z40	X41	Y41	Z41	X42	Y42	Z42	X43	Y43	Z43
																																																																																																																																		
245	2.44	661.48267	1655.1272	-1066.84485	679.09375	1661.10364	-954.07153	541.7915	1620.78406	-1055.47876	557.56702	1626.45068	-934.82544	492.3591	1422.84705	-1008.45251	460.28864	1128.48804	-991.66681	636.22205	1355.93591	-1007.48236	682.59369	1202.68616	-1008.99976	441.06268	1228.22339	-922.97351	574.89386	1381.04431	-1170.0199	536.23016	1194.50439	-1247.75098	511.50958	1047.03833	-1242.99438	535.37018	936.25378	-1266.94019	596.9646	810.83112	-1247.38	542.38141	814.0896	-1272.96143	579.35303	736.87286	-1279.1947	575.00928	1385.23804	-855.24292	539.5824	1183.93701	-745.69409	555.17798	1058.53259	-738.17505	612.39764	950.80908	-710.13226	719.2132	860.14362	-734.70898	679.55219	849.40961	-693.79529	736.77698	786.58258	-696.88623	641.42975	927.28033	-1094.32471	633.87323	922.33344	-876.54266	452.83517	931.28186	-1052.43542	449.01721	936.25616	-908.29474	690.09772	611.89832	-1162.24084	719.47968	483.87778	-1147.27612	712.82367	295.82364	-1165.13354	743.22107	76.03875	-1126.60413	705.15088	41.32629	-1073.01758	892.26495	58.35519	-1131.16284	536.46533	593.08051	-831.50043	515.34918	432.52267	-857.51019	406.9581	291.61945	-849.3252	308.12427	108.3353	-898.0127	247.32964	86.4495	-945.81482	431.23111	36.68024	-907.82013	668.83636	1695.05493	-976.78784	1973.11646	1023.34277	-3101.82446	2012.46265	1021.91827	-3140.67603	NaN	NaN	NaN
246	2.45	668.73425	1655.92493	-1069.28223	686.13593	1661.88586	-956.14441	549.17224	1621.10413	-1057.92004	564.59595	1626.77893	-937.18097	499.96448	1423.35645	-1010.93982	468.10504	1128.97742	-993.73297	643.77283	1356.5498	-1009.70178	690.48517	1203.40979	-1011.05688	448.71335	1228.54602	-925.48401	582.59497	1381.34924	-1172.22583	544.58337	1194.59424	-1249.9624	520.76807	1046.93567	-1245.24609	545.3584	936.29822	-1268.97095	607.59698	811.26642	-1249.02893	553.11469	814.22241	-1274.91614	590.44592	737.27374	-1280.98328	582.32233	1385.82288	-857.41748	545.99237	1184.65039	-748.10522	561.00409	1059.28613	-740.23792	617.38416	951.14941	-712.09857	723.68097	859.64447	-736.27155	683.70929	849.28827	-695.5033	740.57599	786.08405	-698.17603	649.92621	927.9549	-1095.91052	641.68829	922.56769	-878.55658	461.20663	932.15088	-1054.31287	457.21356	936.66064	-909.94427	698.12476	612.96143	-1163.22693	727.09619	484.68423	-1147.95178	719.02246	296.25571	-1166.12366	744.74731	75.5761	-1127.06946	705.92377	41.77332	-1073.50537	893.90149	55.12318	-1130.36694	544.6579	593.25665	-832.99652	523.45056	432.73853	-858.51038	412.21396	293.85818	-849.92218	310.39124	111.95121	-897.73816	249.49504	91.50561	-945.79114	431.61197	36.7369	-907.74738	675.82001	1695.79224	-978.86896	1973.05554	1023.4436	-3101.98755	2012.48938	1022.05774	-3140.73267	NaN	NaN	NaN
247	2.46	675.94055	1656.63196	-1071.31079	692.97845	1662.7063	-958.23718	556.44128	1621.39502	-1060.36206	571.48059	1627.16003	-939.68341	507.46552	1423.8252	-1013.41028	475.24823	1129.44714	-995.72943	651.33307	1357.23975	-1011.92865	698.44446	1204.26038	-1013.1239	456.37698	1229.05762	-927.88141	590.28943	1381.79199	-1174.64099	553.03052	1194.9021	-1252.13538	530.03766	1047.04016	-1247.48816	555.4845	936.56122	-1270.979	618.39825	811.94019	-1250.64673	564.10272	814.45477	-1276.73816	601.90552	737.89447	-1282.67932	589.68188	1386.58984	-859.7691	552.03918	1185.42834	-750.48456	566.71619	1060.1084	-742.51678	622.34332	951.72699	-714.13251	727.94971	859.42316	-737.91602	687.81781	849.27148	-697.22955	744.17059	785.71265	-699.55042	658.41748	928.789	-1097.51392	650.07245	923.16162	-880.07855	469.45596	933.13672	-1056.15344	465.41748	937.36896	-911.85895	706.04425	613.71936	-1164.4834	734.30255	484.95023	-1148.56042	724.67255	296.25299	-1167.44299	746.2699	75.30277	-1127.25024	706.65588	42.06589	-1073.81116	895.24298	52.16411	-1129.8374	553.46619	593.69672	-834.42236	532.74756	433.08667	-859.02795	418.07852	296.561	-850.68451	313.15488	116.06165	-897.5437	252.00775	97.22298	-945.95026	432.09955	36.82338	-907.43341	682.62531	1696.57043	-981.00067	1973.1405	1023.40826	-3102.00928	2012.45276	1022.02844	-3140.7478	NaN	NaN	NaN
248	2.47	683.09015	1657.39331	-1073.29248	699.76801	1663.70862	-960.26086	563.70026	1621.74756	-1062.87866	578.42896	1627.62769	-941.97284	514.90503	1424.37354	-1015.79767	483.29031	1129.94727	-997.81635	658.9696	1358.01721	-1014.1524	706.3985	1205.19482	-1015.20435	464.12292	1229.56958	-930.18298	597.98859	1382.44446	-1176.8927	561.44537	1195.36279	-1254.34888	539.50922	1047.48462	-1249.6842	565.79785	937.034	-1273.07678	629.35376	812.84058	-1252.24146	575.23053	815.02942	-1278.6593	613.59619	738.67505	-1284.31519	597.10034	1387.26318	-862.11951	558.3678	1186.44202	-752.85876	572.39722	1061.14978	-744.70074	627.1709	952.37817	-716.12823	732.01782	859.10828	-739.53308	691.85626	849.48096	-698.91046	747.85376	785.50012	-701.04486	666.79578	929.70074	-1099.31018	657.8963	923.68524	-882.11725	477.94733	934.0141	-1058.01465	473.81641	938.03564	-913.85931	713.83453	613.9541	-1165.68225	741.21271	484.80981	-1149.33459	729.66968	295.90021	-1168.58533	747.73248	75.13671	-1127.34497	707.39447	42.61672	-1074.10535	896.17468	49.71633	-1129.90503	562.953	593.92621	-835.87158	542.45819	433.26599	-859.60168	424.19354	299.63605	-851.3772	316.40033	120.51839	-897.383	255.42296	103.48583	-946.30707	432.59372	36.85678	-907.35754	689.26501	1697.45532	-983.2052	1973.13306	1023.49457	-3101.98999	2012.46692	1022.04736	-3140.72974	NaN	NaN	NaN
249	2.48	690.18481	1658.29199	-1075.30725	706.48901	1664.74731	-962.30243	570.88312	1622.14124	-1065.22363	585.17554	1628.16577	-944.4585	522.37256	1424.88635	-1018.12115	491.29327	1130.49512	-1000.01672	666.58636	1358.91016	-1016.40771	714.35059	1206.17737	-1017.24725	471.82269	1230.2196	-932.39911	605.71979	1383.19641	-1179.19165	569.94427	1196.0155	-1256.65466	548.9845	1047.93921	-1252.0011	576.21332	937.69183	-1275.14575	640.54633	813.96704	-1253.84009	586.54144	815.70764	-1280.50256	625.47852	739.75458	-1286.16943	604.61963	1388.17712	-864.36316	564.63873	1187.53284	-755.26855	578.02759	1062.24744	-746.95734	631.93738	953.12549	-718.18927	735.99908	858.98914	-741.3147	695.57251	849.63348	-700.75073	751.13672	785.16724	-702.70831	675.18024	930.6153	-1101.23425	665.67029	924.41223	-884.35535	486.1893	934.97754	-1059.99866	482.00864	938.8902	-915.87689	721.46307	614.17249	-1166.8634	747.79083	484.36108	-1150.12842	734.24658	295.42783	-1169.46802	749.03845	75.00791	-1127.20203	708.20465	43.11704	-1074.0509	896.93274	47.89787	-1130.17383	572.88812	594.37958	-837.19043	552.80457	433.4194	-859.95367	431.52682	302.83795	-852.33179	320.82397	125.65186	-897.22412	259.74127	110.36829	-946.71167	433.21527	36.95641	-906.9035	695.90436	1698.46362	-985.29852	1973.11951	1023.58484	-3101.95483	2012.41638	1021.98468	-3140.82764	NaN	NaN	NaN
250	2.49	697.09125	1659.36475	-1077.24573	713.1969	1665.95129	-964.28796	577.966	1622.58142	-1067.46997	591.97034	1628.72632	-946.71735	529.94788	1425.54895	-1020.54224	499.272	1131.12939	-1002.3017	674.18536	1359.823	-1018.58441	722.24316	1207.18079	-1019.32983	479.53357	1230.95374	-934.56396	613.45435	1384.07056	-1181.42725	578.47546	1196.74426	-1258.85803	558.53723	1048.52966	-1254.42749	586.74725	938.48175	-1277.21643	652.10596	815.47192	-1255.61145	598.01453	816.60693	-1282.38013	637.58636	740.87213	-1287.71802	611.94623	1389.05188	-866.74591	571.13617	1188.76733	-757.61206	583.59814	1063.26843	-749.3847	636.47534	953.83527	-720.23053	739.698	858.72235	-743.11987	699.25867	849.79016	-702.53003	754.07001	784.69611	-704.42389	683.31384	931.41779	-1103.30273	674.25476	925.39319	-886.20697	494.39267	935.97369	-1062.10242	490.25574	939.76172	-918.09418	728.61597	614.17871	-1167.96277	753.95355	483.86514	-1151.0072	738.54651	294.97928	-1170.24438	750.19666	74.96533	-1126.94788	708.94397	43.52333	-1074.03711	898.00659	46.26324	-1130.04749	583.46802	594.67084	-838.46014	564.51617	433.49545	-859.88849	439.6333	306.17676	-853.03687	324.97675	131.10097	-897.58667	265.10028	117.83131	-947.6167	433.80585	36.93134	-907.06165	702.40283	1699.56262	-987.3927	1973.07617	1023.60962	-3102.00879	2012.4989	1022.05371	-3140.72461	NaN	NaN	NaN
251	2.5	703.90631	1660.64185	-1080.18176	719.65692	1667.09607	-966.25146	585.04926	1623.02942	-1069.92188	598.64832	1629.28918	-948.93256	537.44849	1426.2168	-1022.97626	507.18552	1131.79834	-1004.63202	681.79291	1360.74878	-1020.73541	730.06799	1208.15784	-1021.33582	487.11234	1231.75159	-936.72681	621.30084	1385.00403	-1183.51831	587.09393	1197.5918	-1261.16638	568.16382	1049.35266	-1256.71228	597.31848	939.36981	-1279.31763	663.45435	816.75122	-1257.06506	609.66046	817.59039	-1284.27258	649.92749	742.2218	-1289.45679	619.38837	1389.88831	-868.95001	577.46381	1189.98877	-759.79449	589.0282	1064.39575	-751.69458	641.02448	954.52496	-722.34418	743.64368	858.5152	-744.74884	702.896	849.9519	-704.34821	757.20892	784.27789	-706.33643	691.42902	932.17267	-1105.49609	682.24744	926.46088	-888.46527	502.526	936.91766	-1064.32703	498.34888	940.85968	-920.11908	735.23645	614.03589	-1168.96472	759.71063	483.46628	-1151.92822	742.8161	294.64648	-1170.85498	751.25323	74.81216	-1126.70129	709.39374	43.87961	-1074.33044	898.92444	44.84654	-1129.64136	594.57861	594.80231	-839.53198	577.14362	433.69376	-859.53741	448.78992	309.39224	-853.7049	331.11511	136.8336	-898.08472	271.1459	125.77862	-948.95697	434.6376	36.98136	-907.17908	708.80743	1700.70898	-989.30463	1973.19458	1023.36469	-3101.8938	2012.5542	1022.00677	-3140.64893	NaN	NaN	NaN
